<mxfile host="app.diagrams.net" modified="2020-12-29T02:43:04.121Z" agent="5.0 (Windows NT 10.0; Win64; x64) AppleWebKit/537.36 (KHTML, like Gecko) Chrome/80.0.3987.163 Safari/537.36" etag="gmWvRIGMg6rrTBkQtB9Q" version="14.1.2" type="github">
  <diagram id="7Rga3m8kYK0tySnnNrcM" name="Page-1">
    <mxGraphModel dx="942" dy="582" grid="1" gridSize="10" guides="1" tooltips="1" connect="1" arrows="1" fold="1" page="1" pageScale="1" pageWidth="827" pageHeight="1169" math="0" shadow="0">
      <root>
        <mxCell id="0" />
        <mxCell id="1" parent="0" />
        <mxCell id="vWFOdWr-5Q3RIeE2HVJe-6" value="" style="edgeStyle=orthogonalEdgeStyle;rounded=0;orthogonalLoop=1;jettySize=auto;html=1;" edge="1" parent="1" source="vWFOdWr-5Q3RIeE2HVJe-1" target="vWFOdWr-5Q3RIeE2HVJe-5">
          <mxGeometry relative="1" as="geometry" />
        </mxCell>
        <mxCell id="vWFOdWr-5Q3RIeE2HVJe-1" value="EXTQ004&lt;br&gt;" style="shape=mxgraph.bpmn.shape;html=1;verticalLabelPosition=bottom;labelBackgroundColor=#ffffff;verticalAlign=top;align=center;perimeter=ellipsePerimeter;outlineConnect=0;outline=standard;symbol=general;" vertex="1" parent="1">
          <mxGeometry x="120" y="40" width="50" height="50" as="geometry" />
        </mxCell>
        <mxCell id="vWFOdWr-5Q3RIeE2HVJe-2" value="" style="shape=mxgraph.bpmn.shape;html=1;verticalLabelPosition=bottom;labelBackgroundColor=#ffffff;verticalAlign=top;align=center;perimeter=ellipsePerimeter;outlineConnect=0;outline=throwing;symbol=general;" vertex="1" parent="1">
          <mxGeometry x="375" y="550" width="50" height="50" as="geometry" />
        </mxCell>
        <mxCell id="vWFOdWr-5Q3RIeE2HVJe-8" style="edgeStyle=orthogonalEdgeStyle;rounded=0;orthogonalLoop=1;jettySize=auto;html=1;" edge="1" parent="1" source="vWFOdWr-5Q3RIeE2HVJe-5" target="vWFOdWr-5Q3RIeE2HVJe-7">
          <mxGeometry relative="1" as="geometry" />
        </mxCell>
        <mxCell id="vWFOdWr-5Q3RIeE2HVJe-14" value="[D16,T8-9]" style="edgeLabel;html=1;align=center;verticalAlign=middle;resizable=0;points=[];" vertex="1" connectable="0" parent="vWFOdWr-5Q3RIeE2HVJe-8">
          <mxGeometry x="0.5724" y="-4" relative="1" as="geometry">
            <mxPoint x="4" y="29" as="offset" />
          </mxGeometry>
        </mxCell>
        <mxCell id="vWFOdWr-5Q3RIeE2HVJe-11" style="edgeStyle=orthogonalEdgeStyle;rounded=0;orthogonalLoop=1;jettySize=auto;html=1;" edge="1" parent="1" source="vWFOdWr-5Q3RIeE2HVJe-5" target="vWFOdWr-5Q3RIeE2HVJe-10">
          <mxGeometry relative="1" as="geometry" />
        </mxCell>
        <mxCell id="vWFOdWr-5Q3RIeE2HVJe-15" value="[D14,D17]" style="edgeLabel;html=1;align=center;verticalAlign=middle;resizable=0;points=[];" vertex="1" connectable="0" parent="vWFOdWr-5Q3RIeE2HVJe-11">
          <mxGeometry x="0.7273" y="-4" relative="1" as="geometry">
            <mxPoint x="4" y="5" as="offset" />
          </mxGeometry>
        </mxCell>
        <mxCell id="vWFOdWr-5Q3RIeE2HVJe-13" value="[D13,T4-7]" style="edgeStyle=orthogonalEdgeStyle;rounded=0;orthogonalLoop=1;jettySize=auto;html=1;" edge="1" parent="1" source="vWFOdWr-5Q3RIeE2HVJe-5" target="vWFOdWr-5Q3RIeE2HVJe-9">
          <mxGeometry x="-0.1429" relative="1" as="geometry">
            <mxPoint as="offset" />
          </mxGeometry>
        </mxCell>
        <mxCell id="vWFOdWr-5Q3RIeE2HVJe-5" value="订单&lt;br&gt;类型判断orderType" style="rhombus;whiteSpace=wrap;html=1;verticalAlign=middle;labelBackgroundColor=#ffffff;" vertex="1" parent="1">
          <mxGeometry x="360" y="120" width="80" height="80" as="geometry" />
        </mxCell>
        <mxCell id="vWFOdWr-5Q3RIeE2HVJe-18" style="edgeStyle=orthogonalEdgeStyle;rounded=0;orthogonalLoop=1;jettySize=auto;html=1;entryX=0;entryY=0.5;entryDx=0;entryDy=0;" edge="1" parent="1" source="vWFOdWr-5Q3RIeE2HVJe-7" target="vWFOdWr-5Q3RIeE2HVJe-16">
          <mxGeometry relative="1" as="geometry">
            <Array as="points">
              <mxPoint x="145" y="440" />
            </Array>
          </mxGeometry>
        </mxCell>
        <mxCell id="vWFOdWr-5Q3RIeE2HVJe-7" value="主主订单查询" style="rounded=1;whiteSpace=wrap;html=1;" vertex="1" parent="1">
          <mxGeometry x="85" y="270" width="120" height="60" as="geometry" />
        </mxCell>
        <mxCell id="vWFOdWr-5Q3RIeE2HVJe-17" value="" style="edgeStyle=orthogonalEdgeStyle;rounded=0;orthogonalLoop=1;jettySize=auto;html=1;" edge="1" parent="1" source="vWFOdWr-5Q3RIeE2HVJe-9" target="vWFOdWr-5Q3RIeE2HVJe-16">
          <mxGeometry relative="1" as="geometry" />
        </mxCell>
        <mxCell id="vWFOdWr-5Q3RIeE2HVJe-9" value="订单表查询" style="rounded=1;whiteSpace=wrap;html=1;" vertex="1" parent="1">
          <mxGeometry x="340" y="270" width="120" height="60" as="geometry" />
        </mxCell>
        <mxCell id="vWFOdWr-5Q3RIeE2HVJe-20" style="edgeStyle=orthogonalEdgeStyle;rounded=0;orthogonalLoop=1;jettySize=auto;html=1;entryX=1;entryY=0.5;entryDx=0;entryDy=0;" edge="1" parent="1" source="vWFOdWr-5Q3RIeE2HVJe-10" target="vWFOdWr-5Q3RIeE2HVJe-16">
          <mxGeometry relative="1" as="geometry">
            <Array as="points">
              <mxPoint x="660" y="440" />
            </Array>
          </mxGeometry>
        </mxCell>
        <mxCell id="vWFOdWr-5Q3RIeE2HVJe-10" value="子订单查询" style="rounded=1;whiteSpace=wrap;html=1;" vertex="1" parent="1">
          <mxGeometry x="600" y="270" width="120" height="60" as="geometry" />
        </mxCell>
        <mxCell id="vWFOdWr-5Q3RIeE2HVJe-21" style="edgeStyle=orthogonalEdgeStyle;rounded=0;orthogonalLoop=1;jettySize=auto;html=1;" edge="1" parent="1" source="vWFOdWr-5Q3RIeE2HVJe-16" target="vWFOdWr-5Q3RIeE2HVJe-2">
          <mxGeometry relative="1" as="geometry" />
        </mxCell>
        <mxCell id="vWFOdWr-5Q3RIeE2HVJe-16" value="返回结果" style="rounded=1;whiteSpace=wrap;html=1;" vertex="1" parent="1">
          <mxGeometry x="340" y="410" width="120" height="60" as="geometry" />
        </mxCell>
      </root>
    </mxGraphModel>
  </diagram>
</mxfile>
